<svg xmlns="http://www.w3.org/2000/svg" viewBox="0 0 500 500" width="500" height="500">
  <!-- 渐变定义 -->
  <defs>
    <linearGradient id="bgGradient" x1="0%" y1="0%" x2="100%" y2="100%">
      <stop offset="0%" stop-color="#FF416C" />
      <stop offset="100%" stop-color="#FF4B2B" />
    </linearGradient>
    
    <linearGradient id="textGradient" x1="0%" y1="0%" x2="100%" y2="0%">
      <stop offset="0%" stop-color="#ffffff" />
      <stop offset="100%" stop-color="#f8f8f8" />
    </linearGradient>
    
    <filter id="glow" x="-50%" y="-50%" width="200%" height="200%">
      <feGaussianBlur in="SourceGraphic" stdDeviation="10" result="blur" />
      <feComposite in="SourceGraphic" in2="blur" operator="over" />
    </filter>
    
    <filter id="shadow" x="-10%" y="-10%" width="120%" height="120%">
      <feDropShadow dx="2" dy="2" stdDeviation="3" flood-color="#00000044" />
    </filter>
  </defs>
  
  <!-- 背景形状 -->
  <rect x="100" y="100" width="300" height="300" rx="30" fill="url(#bgGradient)" filter="url(#shadow)" />
  
  <!-- 购物中心图标 - 简约风格 -->
  <g transform="translate(250, 200)" filter="url(#glow)">
    <!-- 购物中心建筑 -->
    <rect x="-70" y="-50" width="140" height="100" rx="5" fill="white" />
    
    <!-- 屋顶 -->
    <path d="M-80,-50 L0,-80 L80,-50" fill="none" stroke="white" stroke-width="8" stroke-linejoin="round" />
    
    <!-- 门 -->
    <rect x="-15" y="20" width="30" height="30" rx="2" fill="url(#bgGradient)" />
    
    <!-- 窗户 -->
    <rect x="-50" y="-30" width="20" height="20" rx="2" fill="url(#bgGradient)" />
    <rect x="-20" y="-30" width="20" height="20" rx="2" fill="url(#bgGradient)" />
    <rect x="10" y="-30" width="20" height="20" rx="2" fill="url(#bgGradient)" />
    <rect x="40" y="-30" width="20" height="20" rx="2" fill="url(#bgGradient)" />
  </g>
  
  <!-- 购物袋图标 -->
  <g transform="translate(250, 280)">
    <path d="M-25,-20 L-25,20 Q-25,25 -20,25 L20,25 Q25,25 25,20 L25,-20 Z" fill="white" />
    <path d="M-15,-20 Q-15,-30 0,-30 Q15,-30 15,-20" fill="none" stroke="white" stroke-width="5" stroke-linecap="round" />
  </g>
  
  <!-- 文字 -->
  <text x="250" y="370" font-family="'Arial', sans-serif" font-size="36" font-weight="bold" text-anchor="middle" fill="url(#textGradient)" filter="url(#shadow)">LUXURY MALL</text>
  
  <!-- 装饰元素 -->
  <circle cx="150" cy="150" r="10" fill="white" opacity="0.5" />
  <circle cx="350" cy="150" r="10" fill="white" opacity="0.5" />
  <circle cx="150" cy="350" r="10" fill="white" opacity="0.5" />
  <circle cx="350" cy="350" r="10" fill="white" opacity="0.5" />
</svg>